inDegrees=yes
name=ik_MT_2026-06-18_12h51_01210270-000-000_orientations
DataType=double
version=3
OpenSimVersion=4.5
endheader
time	pelvis_tilt	pelvis_list	pelvis_rotation	pelvis_tx	pelvis_ty	pelvis_tz	hip_flexion_r	hip_adduction_r	hip_rotation_r	knee_angle_r	knee_angle_r_beta	ankle_angle_r	subtalar_angle_r	mtp_angle_r	hip_flexion_l	hip_adduction_l	hip_rotation_l	knee_angle_l	knee_angle_l_beta	ankle_angle_l	subtalar_angle_l	mtp_angle_l	lumbar_extension	lumbar_bending	lumbar_rotation	arm_flex_r	arm_add_r	arm_rot_r	elbow_flex_r	pro_sup_r	wrist_flex_r	wrist_dev_r	arm_flex_l	arm_add_l	arm_rot_l	elbow_flex_l	pro_sup_l	wrist_flex_l	wrist_dev_l
64.27500000000001	-9.210035883953207	-4.249965019184699	-103.5092844637109	0	0.9399999999999999	0	59.55747727318944	2.211508670521624	-8.585021613607582	55.08045935952035	0.9613353693345571	11.74127827158302	0	0	1.283284365458013	-8.010611555108555	0.1300980453393316	10.062317617389	0.175620572804869	-0.3616914630391467	0	0	-9.48640076737356	-3.496639262721966	5.931160671803152	0	-14.99999989282742	0	75.00017584614659	45.00000025534055	0	0	0	-14.99999989282742	0	75.00017584614659	45.00000025534055	0	0
64.3	-8.77129467257873	-5.432016425091695	-102.5170377734897	0	0.9399999999999999	0	57.26423591446144	2.706324782441091	-8.231196229101602	47.99433821431028	0.8376592241554502	11.11318899511833	0	0	-0.5946639239544375	-6.903740700670789	1.331164328036641	10.90666248111104	0.1903571706991215	1.256788502250184	0	0	-9.479075882999656	-3.729659213779799	5.490118198334807	0	-14.99999989366624	0	75.00017584614659	45.00000025534055	0	0	0	-14.99999989366624	0	75.00017584614659	45.00000025534055	0	0
64.325	-8.020651053818661	-6.956711176740805	-101.0995826463681	0	0.9399999999999999	0	54.13439746532818	2.114981811806245	-8.288914003002693	41.14004687514479	0.7180292723960811	10.58945491636469	0	0	-2.433409010055478	-5.449992991192524	2.793001836094255	12.2647889337449	0.2140609489560132	2.916029146881898	0	0	-9.906026903542728	-4.111154882466606	4.722645544390462	0	-14.99999989466872	0	75.00017584614659	45.00000025534055	0	0	0	-14.99999989466872	0	75.00017584614659	45.00000025534055	0	0
64.34999999999999	-7.063151844876985	-8.616250076371632	-99.46158182601572	0	0.9399999999999999	0	50.28149409878023	1.534826113497331	-8.585930395691515	34.08619715290228	0.5949163698020619	10.01939754666491	0	0	-4.259714461679778	-3.916855019942292	4.427083040449978	13.93025581887914	0.2431288296845399	4.834693154006716	0	0	-10.31331914633196	-4.689887649616614	3.981604400042091	0	-14.99999989477441	0	75.00017584614659	45.00000025534055	0	0	0	-14.99999989477441	0	75.00017584614659	45.00000025534055	0	0
64.375	-5.966799452102105	-10.34533745700641	-97.6405772623295	0	0.9399999999999999	0	45.80182787837813	1.251709717826264	-8.869152676710579	26.79883450601475	0.4677278978270255	9.380210665944976	0	0	-6.031143376236329	-2.460021811918148	6.145615743440784	15.93776869825767	0.2781665392058869	7.00544073346803	0	0	-10.6536229655088	-5.353712505217744	3.319399328632668	0	-14.99999989488905	0	75.00017584614659	45.00000025534055	0	0	0	-14.99999989488905	0	75.00017584614659	45.00000025534055	0	0
64.40000000000001	-4.878194551919518	-11.59709669500242	-95.47630510021567	0	0.9399999999999999	0	41.37688761403211	0.978292513804397	-9.089608105219607	19.57036896401247	0.3415673742521292	8.57408472683343	0	0	-7.366521812232041	-1.276758902836751	8.093828146579543	18.10490659627465	0.3159902308710323	9.383205667258331	0	0	-10.75392658055586	-5.846264737240979	2.65441236215225	0	-14.99999989499615	0	75.00017584614659	45.00000025534055	0	0	0	-14.99999989499615	0	75.00017584614659	45.00000025534055	0	0
64.425	-4.000938741642538	-12.94218922250128	-93.12711017678771	0	0.9399999999999999	0	36.39230316414768	0.7706889276396317	-9.153967643072937	12.4786435123783	0.217793415473631	7.590896629421002	0	0	-9.053875044394083	-0.4889552253808568	10.08569891199261	20.02847376105679	0.349562811279733	11.67610443739122	0	0	-11.4319204957607	-6.033913587853889	2.014587273642916	0	-14.99999989512036	0	75.00017584614659	45.00000025534055	0	0	0	-14.99999989512036	0	75.00017584614659	45.00000025534055	0	0
64.45	-3.253477423638432	-14.08211454756098	-90.7572306999817	0	0.9399999999999999	0	31.68903929794715	0.6901801406473562	-9.462169375753239	6.530945376292626	0.1139865000842063	6.834367748479462	0	0	-10.86842866472631	-0.0004697125779306732	11.84453286475089	21.57350989114336	0.3765287788120151	13.7728290915673	0	0	-11.93275739814923	-5.935723439687489	1.39781753863613	0	-14.99999989525764	0	75.00017584614659	45.00000025534055	0	0	0	-14.99999989525764	0	75.00017584614659	45.00000025534055	0	0
64.47499999999999	-2.420026090107382	-15.43802449854662	-88.38762610957005	0	0.9399999999999999	0	27.39524316271137	0.4510509888898981	-10.41904479432554	2.602409576023272	0.04542061558703579	6.163173524559869	0	0	-13.10729977805166	0.3324923457543181	13.54343353089616	22.93786503421526	0.4003412682251381	15.71425666094345	0	0	-12.73912369099087	-5.73280287381348	0.8564303405222868	0	-14.99999989536458	0	75.00017584614659	45.00000025534055	0	0	0	-14.99999989536458	0	75.00017584614659	45.00000025534055	0	0
64.5	-1.437581299156978	-16.22607923946924	-86.26716543660557	0	0.9399999999999999	0	24.29558403445701	-0.1113400682337555	-11.32471747675982	0.6540806887359151	0.01141586159215391	5.429977645289823	0	0	-15.17188109072598	0.6390121249634124	15.06036841747131	23.74138362702341	0.4143653132706319	17.35267056103966	0	0	-13.26326213151718	-5.486681417529091	0.5046984660323901	0	-14.99999989540465	0	75.00017584614659	45.00000025534055	0	0	0	-14.99999989540465	0	75.00017584614659	45.00000025534055	0	0
64.52500000000001	-0.484235382899886	-16.09977964867178	-84.4860538956278	0	0.9399999999999999	0	22.52132025027679	-1.094353161652662	-11.2733301693182	0.3616927588112812	0.006312729521878589	4.999104953190852	0	0	-16.67169360966084	0.9274090714575742	16.2077127020369	23.967454348284	0.4183109916989876	18.66650716883386	0	0	-13.44358316803301	-5.251000791993216	0.3939482645580655	0	-14.9999998955219	0	75.00017584614659	45.00000025534055	0	0	0	-14.9999998955219	0	75.00017584614659	45.00000025534055	0	0
64.55	0.3091593711168067	-15.79086474023641	-82.95576361405593	0	0.9399999999999999	0	20.79567031750814	-1.948576038364162	-10.37071291733711	0.3457593894634235	0.00603463976582213	4.498032783337487	0	0	-18.18111051021059	0.9752322127856485	16.92295608598899	23.91064532951293	0.4173194872766051	19.66344500991643	0	0	-13.66350636500752	-4.906135674574233	0.4542725001330465	0	-14.99999989565817	0	75.00017584614659	45.00000025534055	0	0	0	-14.99999989565817	0	75.00017584614659	45.00000025534055	0	0
64.575	1.00501225966639	-14.78543667178752	-81.42002779675987	0	0.9399999999999999	0	19.46930250906204	-2.83053427366311	-9.410540123270783	0.3074294379622181	0.005365655909996351	4.682112774625441	0	0	-19.04400559826511	0.7954126783426531	17.62210154940902	23.82814113692783	0.4158795174692957	20.81439142921248	0	0	-13.13873456286747	-4.416622051585577	0.1682255539716229	0	-14.99999989586407	0	75.00017584614659	45.00000025534055	0	0	0	-14.99999989586407	0	75.00017584614659	45.00000025534055	0	0
64.59999999999999	1.621172890205392	-13.26918829368566	-80.04393763272851	0	0.9399999999999999	0	18.41355965955876	-3.773379139719531	-8.680789938760006	0.203886342789834	0.003558487981532404	4.899092837375004	0	0	-19.35501437827337	0.5473253972305019	18.26765646623431	23.79940322730435	0.4153779463262254	21.07375101642397	0	0	-12.08508421267417	-3.870325596373894	-0.1308361731306608	0	-14.99999989610768	0	75.00017584614659	45.00000025534055	0	0	0	-14.99999989610768	0	75.00017584614659	45.00000025534055	0	0
64.625	1.762455683675645	-11.45078919435647	-79.49889543498929	0	0.9399999999999999	0	18.89119227259124	-4.779790655737306	-11.0258600827053	0.05533589243396832	0.000965793517502166	-0.8621617492967625	0	0	-19.19305947044914	0.2682092054519035	18.13926582597763	24.01333910019412	0.4191118316962799	18.78523431302418	0	0	-10.08640185634131	-3.234440047155685	0.08860873105712491	0	-14.99999989644509	0	75.00017584614659	45.00000025534055	0	0	0	-14.99999989644509	0	75.00017584614659	45.00000025534055	0	0
